#!OML:ASF F:\VICON\USERDATA\INSTALL\rory3\rory3.ASF
:FULLY-SPECIFIED
:DEGREES
16
root 0.489368 18.9612 -2.47254 2.96878 -3.32267 1.83827
lowerback 5.26887 0.929245 -3.28895
upperback 0.307592 0.992721 -1.73313
thorax -2.6634 0.523348 -0.0140561
lowerneck -9.80025 -2.47411 -8.5147
upperneck 9.21707 -3.19493 9.66159
head 4.65556 -1.30359 4.18032
rclavicle -1.63997e-015 1.19271e-014
rhumerus -33.4867 -4.34066 -80.0599
rradius 28.5883
rwrist 18.125
rhand -22.0034 0.00673132
rfingers 7.12502
rthumb 4.40546 -29.9274
lclavicle -1.63997e-015 1.19271e-014
lhumerus -35.4707 17.7193 72.1846
lradius 26.2956
lwrist -2.02158
lhand -17.9108 26.6048
lfingers 7.12502
lthumb 8.35644 56.4195
rfemur -5.61055 20.5558 16.1973
rtibia 17.6067
rfoot -14.7445 -18.3942
rtoes -1.02914
lfemur -3.88882 -6.62149 -21.1852
ltibia 13.9158
lfoot -12.2926 16.2717
ltoes -3.94836
17
root 0.488078 18.957 -2.48366 3.0495 -3.44019 1.76964
lowerback 5.47543 0.988294 -3.31357
upperback 0.26467 1.0597 -1.68535
thorax -2.82653 0.559329 0.0394401
lowerneck -9.73676 -2.45655 -8.5001
upperneck 9.11574 -3.16843 9.63647
head 4.61083 -1.29365 4.17133
rclavicle 1.82882e-014 -1.15295e-014
rhumerus -33.5114 -4.29082 -80.0075
rradius 28.5747
rwrist 18.1606
rhand -21.9369 -0.170824
rfingers 7.12502
rthumb 4.46974 -30.1037
lclavicle 1.82882e-014 -1.15295e-014
lhumerus -35.5413 17.6607 72.1838
lradius 26.2985
lwrist -1.85689
lhand -17.8732 25.5908
lfingers 7.12502
lthumb 8.39268 55.404
rfemur -5.98615 20.6737 16.2058
rtibia 17.9862
rfoot -14.9054 -18.2841
rtoes -0.62911
lfemur -4.19115 -6.58381 -21.0947
ltibia 14.2694
lfoot -12.4715 16.3169
ltoes -3.57922
18
root 0.487626 18.952 -2.49348 3.10369 -3.54088 1.72298
lowerback 5.63266 1.05295 -3.29013
upperback 0.274 1.14024 -1.674
thorax -2.9069 0.5999 0.0286523
lowerneck -9.76658 -2.45643 -8.54647
upperneck 9.08411 -3.1655 9.70751
head 4.60783 -1.28914 4.20149
rclavicle -1.15792e-014 2.10712e-014
rhumerus -33.4756 -4.35956 -79.9584
rradius 28.5825
rwrist 18.1849
rhand -21.8723 -0.2371
rfingers 7.12502
rthumb 4.53205 -30.1686
lclavicle -1.15792e-014 2.10712e-014
lhumerus -35.5875 17.4177 72.2988
lradius 26.568
lwrist -1.56577
lhand -17.7706 25.6378
lfingers 7.12502
lthumb 8.49169 55.4471
rfemur -6.34809 20.7239 16.2053
rtibia 18.4106
rfoot -15.0341 -18.2241
rtoes -0.81048
lfemur -4.47435 -6.45693 -21.0261
ltibia 14.6403
lfoot -12.6792 16.2401
ltoes -3.3763
19
root 0.488369 18.9456 -2.50042 3.18003 -3.6092 1.81958
lowerback 5.673 1.06554 -3.42542
upperback 0.317739 1.14742 -1.68238
thorax -2.8871 0.604527 0.0948754
lowerneck -9.90277 -2.43047 -8.65523
upperneck 9.10098 -3.11855 9.82036
head 4.63491 -1.25983 4.25862
rclavicle 5.2181e-015 1.15295e-014
rhumerus -33.3374 -4.28173 -79.9653
rradius 28.5761
rwrist 18.087
rhand -21.7365 -0.196899
rfingers 7.12502
rthumb 4.66318 -30.1256
lclavicle 5.2181e-015 1.15295e-014
lhumerus -35.5728 17.3983 72.3576
lradius 26.7721
lwrist -1.56031
lhand -17.7711 25.9497
lfingers 7.12502
lthumb 8.49126 55.759
rfemur -6.75799 20.6314 16.0361
rtibia 18.8911
rfoot -15.199 -18.1184
rtoes -1.05568
lfemur -4.79177 -6.28863 -21.1253
ltibia 15.0252
lfoot -12.7821 16.1207
ltoes -3.55103
20
root 0.489396 18.9382 -2.50759 3.31858 -3.65699 1.87683
lowerback 5.69215 1.05568 -3.51194
upperback 0.327712 1.12796 -1.68473
thorax -2.88868 0.595844 0.142179
lowerneck -10.0242 -2.40341 -8.68322
upperneck 9.13567 -3.07413 9.84734
head 4.6625 -1.23417 4.27505
rclavicle -1.71949e-014 -2.0276e-014
rhumerus -33.2196 -4.18138 -79.9858
rradius 28.5605
rwrist 17.9502
rhand -21.6462 -0.184295
rfingers 7.12502
rthumb 4.75044 -30.111
lclavicle -1.71949e-014 -2.0276e-014
lhumerus -35.55 17.4566 72.3512
lradius 26.7894
lwrist -1.54579
lhand -18.0783 25.5094
lfingers 7.12502
lthumb 8.19478 55.3305
rfemur -7.251 20.4634 15.8891
rtibia 19.4148
rfoot -15.3066 -17.9423
rtoes -1.31603
lfemur -5.19879 -6.19522 -21.178
ltibia 15.4391
lfoot -12.8531 16.1019
ltoes -3.96562
21
root 0.48985 18.9309 -2.51797 3.43654 -3.71752 1.90751
lowerback 5.75554 1.05818 -3.53289
upperback 0.348136 1.12638 -1.71614
thorax -2.90287 0.595078 0.120706
lowerneck -10.0369 -2.39172 -8.67113
upperneck 9.07288 -3.05655 9.8601
head 4.64385 -1.2244 4.27783
rclavicle 8.64713e-015 -2.78299e-015
rhumerus -33.1248 -4.13347 -80.0423
rradius 28.6523
rwrist 17.8498
rhand -21.446 -0.492928
rfingers 7.12502
rthumb 4.94372 -30.4153
lclavicle 8.64713e-015 -2.78299e-015
lhumerus -35.5112 17.4205 72.3339
lradius 26.8196
lwrist -1.44121
lhand -18.4591 25.4576
lfingers 7.12502
lthumb 7.82726 55.2927
rfemur -7.74825 20.4114 15.781
rtibia 19.9699
rfoot -15.4346 -17.8582
rtoes -1.45953
lfemur -5.60175 -6.10828 -21.1914
ltibia 15.8852
lfoot -13.0225 16.0648
ltoes -4.03958
22
root 0.4883 18.9233 -2.53108 3.51714 -3.80241 1.87468
lowerback 5.84555 1.07712 -3.53853
upperback 0.415529 1.14878 -1.71747
thorax -2.88441 0.605392 0.119797
lowerneck -10.0887 -2.39068 -8.67583
upperneck 8.95178 -3.04721 9.89842
head 4.6155 -1.2171 4.2903
rclavicle -8.74653e-015 -3.65764e-014
rhumerus -32.9818 -4.16165 -80.0708
rradius 28.7523
rwrist 17.8432
rhand -21.2586 -0.63597
rfingers 7.12502
rthumb 5.12465 -30.554
lclavicle -8.74653e-015 -3.65764e-014
lhumerus -35.4099 17.2779 72.3853
lradius 26.8913
lwrist -1.1936
lhand -18.7386 25.7362
lfingers 7.12502
lthumb 7.55742 55.5812
rfemur -8.24041 20.5277 15.7751
rtibia 20.5621
rfoot -15.5688 -17.9676
rtoes -1.72413
lfemur -5.97601 -5.96925 -21.1215
ltibia 16.3683
lfoot -13.2777 15.9037
ltoes -3.74238
23
root 0.484687 18.9145 -2.5418 3.55102 -3.92535 1.80557
lowerback 5.97833 1.11171 -3.58128
upperback 0.504288 1.18927 -1.67615
thorax -2.87 0.625213 0.181463
lowerneck -10.2646 -2.37234 -8.57344
upperneck 8.87705 -3.01083 9.81827
head 4.61608 -1.19629 4.24917
rclavicle 3.35946e-014 -9.14409e-015
rhumerus -32.8315 -4.09404 -80.0986
rradius 28.8464
rwrist 17.8041
rhand -21.214 -0.771104
rfingers 7.12502
rthumb 5.16774 -30.6881
lclavicle 3.35946e-014 -9.14409e-015
lhumerus -35.3136 17.0863 72.4924
lradius 26.9945
lwrist -0.831594
lhand -18.9483 25.7436
lfingers 7.12502
lthumb 7.35503 55.5958
rfemur -8.70957 20.7268 15.8363
rtibia 21.2089
rfoot -15.6843 -18.1411
rtoes -2.25511
lfemur -6.28306 -5.81617 -21.0243
ltibia 16.8387
lfoot -13.4717 15.8294
ltoes -3.69762
24
root 0.4805 18.9045 -2.55333 3.54496 -4.0761 1.83764
lowerback 6.21209 1.18614 -3.66801
upperback 0.554084 1.27069 -1.70919
thorax -2.95312 0.666964 0.184612
lowerneck -10.3024 -2.37808 -8.46237
upperneck 8.71699 -3.01949 9.79378
head 4.57257 -1.19814 4.22076
rclavicle 4.77083e-015 1.55052e-014
rhumerus -32.7607 -4.03373 -80.1651
rradius 28.8961
rwrist 17.7279
rhand -21.3624 -0.660089
rfingers 7.12502
rthumb 5.02445 -30.5805
lclavicle 4.77083e-015 1.55052e-014
lhumerus -35.2039 16.8968 72.5208
lradius 26.9866
lwrist -0.563001
lhand -19.4221 25.4162
lfingers 7.12502
lthumb 6.89775 55.2839
rfemur -9.15576 20.8308 15.7876
rtibia 21.8923
rfoot -15.8482 -18.0987
rtoes -2.41311
lfemur -6.55603 -5.55908 -21.0419
ltibia 17.2969
lfoot -13.6319 15.6926
ltoes -3.66576
25
root 0.477604 18.8947 -2.5662 3.56432 -4.09952 2.04634
lowerback 6.38831 1.22402 -3.86441
upperback 0.614789 1.29638 -1.81488
thorax -2.99185 0.681299 0.18009
lowerneck -10.2512 -2.39617 -8.47972
upperneck 8.46362 -3.04124 9.90639
head 4.49113 -1.20582 4.25599
rclavicle 9.0447e-015 -1.98785e-014
rhumerus -32.6945 -3.9337 -80.2706
rradius 28.9547
rwrist 17.6701
rhand -21.7168 -0.543587
rfingers 7.12502
rthumb 4.68225 -30.4718
lclavicle 9.0447e-015 -1.98785e-014
lhumerus -35.056 16.7356 72.5427
lradius 26.9819
lwrist -0.249001
lhand -19.7561 24.7413
lfingers 7.12502
lthumb 6.57526 54.6192
rfemur -9.61262 20.7614 15.5305
rtibia 22.6076
rfoot -16.2223 -17.8906
rtoes -2.207
lfemur -6.88552 -5.244 -21.2526
ltibia 17.7403
lfoot -13.6527 15.4489
ltoes -4.13035
26
root 0.476903 18.8838 -2.58028 3.56959 -4.04442 2.25907
lowerback 6.58534 1.21925 -4.07454
upperback 0.704441 1.26428 -1.89571
thorax -3.01115 0.666633 0.214052
lowerneck -10.3373 -2.40535 -8.50847
upperneck 8.28965 -3.04069 9.98615
head 4.45444 -1.20087 4.28451
rclavicle 8.10048e-015 -2.78299e-015
rhumerus -32.5783 -4.01229 -80.2834
rradius 29.0504
rwrist 17.7796
rhand -21.7016 -0.547002
rfingers 7.12502
rthumb 4.69694 -30.4749
lclavicle 8.10048e-015 -2.78299e-015
lhumerus -34.9196 16.7807 72.4854
lradius 27.0777
lwrist -0.545041
lhand -19.2553 24.7128
lfingers 7.12502
lthumb 7.05872 54.5751
rfemur -10.0622 20.6193 15.2802
rtibia 23.3605
rfoot -16.5703 -17.7602
rtoes -2.10253
lfemur -7.20606 -4.9511 -21.4573
ltibia 18.1858
lfoot -13.7125 15.0656
ltoes -4.09553
27
root 0.473663 18.8718 -2.59534 3.5965 -4.02761 2.43537
lowerback 6.80357 1.23278 -4.29798
upperback 0.750764 1.25242 -1.952
thorax -3.08854 0.66358 0.277769
lowerneck -10.3284 -2.41448 -8.47844
upperneck 8.15049 -3.04638 9.96198
head 4.4104 -1.20521 4.27036
rclavicle -8.59744e-015 1.59028e-015
rhumerus -32.5116 -4.00147 -80.3099
rradius 29.1803
rwrist 17.7343
rhand -21.5633 -0.660713
rfingers 7.12502
rthumb 4.83044 -30.5857
lclavicle -8.59744e-015 1.59028e-015
lhumerus -34.8326 16.8128 72.356
lradius 27.1242
lwrist -1.12704
lhand -18.7103 25.2989
lfingers 7.12502
lthumb 7.5848 55.1429
rfemur -10.578 20.5673 15.0556
rtibia 24.121
rfoot -16.9113 -17.7341
rtoes -1.78501
lfemur -7.56582 -4.73561 -21.6164
ltibia 18.6706
lfoot -13.8453 14.7946
ltoes -4.0716
28
root 0.468171 18.8579 -2.60981 3.61094 -4.007 2.53796
lowerback 7.09432 1.24027 -4.46016
upperback 0.732753 1.22944 -1.99159
thorax -3.27174 0.656814 0.323035
lowerneck -10.1572 -2.41432 -8.4917
upperneck 8.03174 -3.05444 10.0174
head 4.34761 -1.21175 4.28928
rclavicle 2.48481e-015 -2.5842e-014
rhumerus -32.6089 -3.64896 -80.4512
rradius 29.3708
rwrist 17.4074
rhand -21.4869 -0.536149
rfingers 7.12502
rthumb 4.90424 -30.4594
lclavicle 2.48481e-015 -2.5842e-014
lhumerus -34.9434 16.7598 72.2145
lradius 27.2609
lwrist -1.53154
lhand -18.2707 25.5751
lfingers 7.12502
lthumb 8.00903 55.4033
rfemur -11.0634 20.5879 14.9389
rtibia 24.872
rfoot -17.232 -17.8003
rtoes -1.56845
lfemur -7.93555 -4.47426 -21.6867
ltibia 19.1913
lfoot -13.9408 14.5223
ltoes -4.3105
